<?xml version="1.0" encoding="iso-8859-1"?>
<!-- Generator: Adobe Illustrator 19.0.0, SVG Export Plug-In . SVG Version: 6.00 Build 0)  -->
<svg version="1.1" id="Layer_1" xmlns="http://www.w3.org/2000/svg" xmlns:xlink="http://www.w3.org/1999/xlink" x="0px" y="0px"
	 viewBox="0 0 503.322 503.322" style="enable-background:new 0 0 503.322 503.322;" xml:space="preserve">
<path style="fill:#D4D0BA;" d="M459.932,104.136h-86.78c-9.546,0-17.356-7.81-17.356-17.356V0L459.932,104.136z"/>
<path style="fill:#EFEADD;" d="M459.932,104.136h-86.78c-9.546,0-17.356-7.81-17.356-17.356V0H112.814
	c-9.546,0-17.356,7.81-17.356,17.356v416.542c0,9.546,7.81,17.356,17.356,17.356h329.763c9.546,0,17.356-7.81,17.356-17.356V104.136
	z"/>
<g>
	<path style="fill:#D4D0BA;" d="M112.814,451.254c-9.546,0-17.356-7.81-17.356-17.356V53.803l-8.678-1.736H60.746
		c-9.546,0-17.356,7.81-17.356,17.356v416.542c0,9.546,7.81,17.356,17.356,17.356h329.763c9.546,0,17.356-7.81,17.356-17.356
		v-26.034l-0.868-8.678H112.814z"/>
	<path style="fill:#D4D0BA;" d="M312.407,112.814H156.203c-5.207,0-8.678-3.471-8.678-8.678c0-5.207,3.471-8.678,8.678-8.678
		h156.203c5.207,0,8.678,3.471,8.678,8.678C321.085,109.342,317.614,112.814,312.407,112.814"/>
	<path style="fill:#D4D0BA;" d="M416.542,164.881H156.203c-5.207,0-8.678-3.471-8.678-8.678c0-5.207,3.471-8.678,8.678-8.678
		h260.339c5.207,0,8.678,3.471,8.678,8.678C425.22,161.41,421.749,164.881,416.542,164.881"/>
	<path style="fill:#D4D0BA;" d="M416.542,216.949H156.203c-5.207,0-8.678-3.471-8.678-8.678c0-5.207,3.471-8.678,8.678-8.678
		h260.339c5.207,0,8.678,3.471,8.678,8.678C425.22,213.478,421.749,216.949,416.542,216.949"/>
	<path style="fill:#D4D0BA;" d="M416.542,269.017H156.203c-5.207,0-8.678-3.471-8.678-8.678s3.471-8.678,8.678-8.678h260.339
		c5.207,0,8.678,3.471,8.678,8.678S421.749,269.017,416.542,269.017"/>
	<path style="fill:#D4D0BA;" d="M416.542,321.085H156.203c-5.207,0-8.678-3.471-8.678-8.678c0-5.207,3.471-8.678,8.678-8.678
		h260.339c5.207,0,8.678,3.471,8.678,8.678C425.22,317.614,421.749,321.085,416.542,321.085"/>
	<path style="fill:#D4D0BA;" d="M416.542,373.153H156.203c-5.207,0-8.678-3.471-8.678-8.678s3.471-8.678,8.678-8.678h260.339
		c5.207,0,8.678,3.471,8.678,8.678S421.749,373.153,416.542,373.153"/>
</g>
<g>
</g>
<g>
</g>
<g>
</g>
<g>
</g>
<g>
</g>
<g>
</g>
<g>
</g>
<g>
</g>
<g>
</g>
<g>
</g>
<g>
</g>
<g>
</g>
<g>
</g>
<g>
</g>
<g>
</g>
</svg>
